<!DOCTYPE svg PUBLIC "-//W3C//DTD SVG 1.1//EN" "http://www.w3.org/Graphics/SVG/1.1/DTD/svg11.dtd">
<!-- Uploaded to: SVG Repo, www.svgrepo.com, Transformed by: SVG Repo Mixer Tools -->
<svg width="800px" height="800px" viewBox="0 0 64 64" xmlns="http://www.w3.org/2000/svg" xmlns:xlink="http://www.w3.org/1999/xlink" aria-hidden="true" role="img" class="iconify iconify--emojione" preserveAspectRatio="xMidYMid meet" fill="#000000">
<g id="SVGRepo_bgCarrier" stroke-width="0"/>
<g id="SVGRepo_tracerCarrier" stroke-linecap="round" stroke-linejoin="round"/>
<g id="SVGRepo_iconCarrier">
<path d="M2 29.6c15.8-12.6 23.3.5 32.8.5c7.5 0 16.8-13.1 27.2-2.4c-11.9-5.7-16.3 6.5-28.7 6.5c-9.5 0-13.2-11.3-31.3-4.6" fill="#66bdff"/>
<path d="M62 39.7c-9.2-7.6-15.1-1.4-22.7 1.8c-4.8 2-9.8 1.5-14.8-3.8c3.6 1.3 11.5 5.6 19.3-2c-6.7 3-15.1.9-21.9-2.5c-7.5-3.7-13.6-4.3-19.9 2.5c3.9-3 9.6-2.3 14-1.1c-2.8.1-8.9.8-14 8.7C17.4 30.5 23 48 35.1 48c11.7 0 10.6-13.1 26.9-8.3" fill="#c2e4ff"/>
<path d="M2 25.3c1.9-5.4 15.2-13.2 25.8.1C13 18.6 2 25.3 2 25.3" fill="#66bdff"/>
<path d="M42.1 19.8c6.2-6.8 16.1-3.1 19.9.3c-3.1-.4-12.5-2.4-16.5 2c-6.4 6.8-13.9 5.8-16.3 3.4c0-.1 7.6.2 12.9-5.7" fill="#c2e4ff"/>
<path d="M45.4 35.4c8-13.3 16.6-2.1 16.6-2.1c-9.4-3.3-16.6 2.1-16.6 2.1" fill="#66bdff"/>
</g>
</svg>